<svg width="17" height="17" viewBox="0 0 17 17" fill="none" xmlns="http://www.w3.org/2000/svg">
<path d="M16.769 14.698L13.458 11.388C13.309 11.238 13.106 11.155 12.894 11.155H12.352C13.269 9.983 13.814 8.50901 13.814 6.90601C13.814 3.09101 10.722 0 6.90701 0C3.09101 0 0 3.09101 0 6.90601C0 10.72 3.09101 13.811 6.90701 13.811C8.51101 13.811 9.98501 13.267 11.157 12.35V12.892C11.157 13.104 11.24 13.307 11.39 13.456L14.7 16.766C15.012 17.078 15.517 17.078 15.826 16.766L16.765 15.826C17.078 15.514 17.078 15.01 16.769 14.698ZM6.90701 11.155C4.55901 11.155 2.65601 9.25601 2.65601 6.90601C2.65601 4.55801 4.55601 2.65601 6.90701 2.65601C9.25401 2.65601 11.157 4.55501 11.157 6.90601C11.157 9.25301 9.25801 11.155 6.90701 11.155Z" fill="white"/>
</svg>
